<svg width="35" height="46" viewBox="0 0 35 46" fill="none" xmlns="http://www.w3.org/2000/svg">
<path d="M33.285 0.754887C32.9183 0.565575 32.5066 0.478958 32.0941 0.504326C31.6816 0.529694 31.2838 0.666088 30.9435 0.898876L1.47586 21.1481C1.17475 21.3552 0.92868 21.6316 0.758728 21.9537C0.588776 22.2757 0.5 22.6339 0.5 22.9975C0.5 23.3611 0.588776 23.7193 0.758728 24.0414C0.92868 24.3635 1.17475 24.6399 1.47586 24.8469L30.9435 45.0962C31.2832 45.3314 31.6814 45.4695 32.0948 45.4955C32.5081 45.5215 32.9207 45.4344 33.2876 45.2436C33.6545 45.0528 33.9616 44.7657 34.1754 44.4136C34.3891 44.0615 34.5014 43.6578 34.5 43.2467L34.5 2.74831C34.5001 2.33762 34.3869 1.93473 34.1727 1.58334C33.9585 1.23195 33.6515 0.945446 33.285 0.754887ZM29.9665 38.9516L6.74829 22.9975L29.9665 7.04339L29.9665 38.9516Z" fill="#9C6D51"/>
</svg>
