<svg width="35" height="46" viewBox="0 0 35 46" fill="none" xmlns="http://www.w3.org/2000/svg">
<path d="M1.71499 45.2451C2.08167 45.4344 2.49337 45.521 2.90589 45.4957C3.31842 45.4703 3.71619 45.3339 4.05653 45.1011L33.5241 24.8519C33.8253 24.6448 34.0713 24.3684 34.2413 24.0463C34.4112 23.7243 34.5 23.3661 34.5 23.0025C34.5 22.6389 34.4112 22.2807 34.2413 21.9586C34.0713 21.6365 33.8253 21.3601 33.5241 21.1531L4.05653 0.903841C3.71683 0.668623 3.3186 0.530487 2.90524 0.504494C2.49188 0.4785 2.07927 0.565646 1.71238 0.756431C1.3455 0.947215 1.03842 1.23432 0.824639 1.58643C0.610854 1.93855 0.498565 2.34216 0.500014 2.75327V43.2517C0.499946 43.6624 0.613131 44.0653 0.827302 44.4167C1.04147 44.7681 1.34846 45.0546 1.71499 45.2451ZM5.03349 7.04835L28.2517 23.0025L5.03349 38.9566V7.04835Z" fill="#9C6D51"/>
</svg>
