<svg width="148" height="396" viewBox="0 0 148 396" fill="none" xmlns="http://www.w3.org/2000/svg">
<g filter="url(#filter0_b_214_12)">
<path d="M55.86 23.22C55.6 23.66 55.29 24.06 54.93 24.42C54.57 24.8 54.09 25.17 53.49 25.53C52.91 25.89 52.24 26.16 51.48 26.34C50.74 26.52 49.84 26.65 48.78 26.73C47.74 26.81 46.59 26.74 45.33 26.52C41.53 25.96 37.82 24.9 34.2 23.34C30.58 21.8 27.27 19.85 24.27 17.49C21.75 15.49 19.74 13.43 18.24 11.31C16.72 9.21 15.96 7.39 15.96 5.85C15.96 5.83 15.96 5.81 15.96 5.79C15.96 5.53 15.99 5.28 16.05 5.04C14.37 4.76 13.07 4.58 12.15 4.5C12.25 4.54 12.35 4.58 12.45 4.62C12.61 4.68 12.72 4.78 12.78 4.92C12.84 5.08 12.84 5.23 12.78 5.37C12.72 5.53 12.62 5.64 12.48 5.7C12.32 5.76 12.17 5.76 12.03 5.7C11.19 5.36 10.6 5.07 10.26 4.83C9.9 4.61 9.72 4.36 9.72 4.08C9.72 4.02 9.74 3.95 9.78 3.87C9.84 3.65 10 3.49 10.26 3.39C10.5 3.31 11.12 3.3 12.12 3.36C13.12 3.44 14.58 3.64 16.5 3.96C17.06 3.14 17.98 2.66 19.26 2.52C19.36 2.5 19.46 2.51 19.56 2.55C19.66 2.59 19.74 2.65 19.8 2.73C19.86 2.83 19.9 2.93 19.92 3.03C19.92 3.11 19.91 3.18 19.89 3.24C19.87 3.32 19.84 3.39 19.8 3.45C19.74 3.51 19.68 3.56 19.62 3.6C19.56 3.64 19.49 3.66 19.41 3.66C18.75 3.74 18.24 3.91 17.88 4.17C22.52 4.97 30.76 6.58 42.6 9C47.74 10.04 51.27 10.75 53.19 11.13C52.99 10.81 52.79 10.51 52.59 10.23C51.91 9.29 51.15 8.41 50.31 7.59C49.49 6.77 48.54 5.99 47.46 5.25C46.4 4.53 45.28 3.96 44.1 3.54C42.94 3.12 41.68 2.84 40.32 2.7C38.98 2.56 37.61 2.66 36.21 3C36.05 3.02 35.9 2.99 35.76 2.91C35.64 2.83 35.56 2.71 35.52 2.55C35.5 2.39 35.53 2.24 35.61 2.1C35.69 1.98 35.81 1.9 35.97 1.86C37.47 1.5 38.94 1.39 40.38 1.53C41.84 1.69 43.2 1.99 44.46 2.43C45.72 2.89 46.92 3.5 48.06 4.26C49.2 5.04 50.21 5.86 51.09 6.72C51.99 7.6 52.8 8.54 53.52 9.54C53.96 10.16 54.36 10.78 54.72 11.4C55.56 11.56 56.28 11.7 56.88 11.82C57.04 11.84 57.16 11.91 57.24 12.03C57.34 12.17 57.37 12.32 57.33 12.48C57.31 12.64 57.23 12.76 57.09 12.84C56.97 12.94 56.83 12.98 56.67 12.96C56.31 12.88 55.88 12.8 55.38 12.72C56.32 14.68 56.83 16.58 56.91 18.42C57.01 20.28 56.66 21.88 55.86 23.22ZM45.48 25.38C47.82 25.7 49.78 25.63 51.36 25.17C52.96 24.71 54.14 23.86 54.9 22.62C55.64 21.36 55.92 19.83 55.74 18.03C55.58 16.23 54.99 14.37 53.97 12.45C51.93 12.05 48.06 11.27 42.36 10.11C30.08 7.61 21.69 5.98 17.19 5.22C17.15 5.4 17.12 5.59 17.1 5.79C17.1 5.81 17.1 5.83 17.1 5.85C17.1 7.09 17.78 8.68 19.14 10.62C20.48 12.58 22.43 14.56 24.99 16.56C25.99 17.36 27.09 18.14 28.29 18.9C29.49 19.66 30.96 20.49 32.7 21.39C34.44 22.29 36.42 23.09 38.64 23.79C40.86 24.51 43.14 25.04 45.48 25.38ZM33.66 35.9876C33.68 36.1476 33.64 36.2876 33.54 36.4076C33.44 36.5476 33.31 36.6276 33.15 36.6476C32.99 36.6676 32.85 36.6276 32.73 36.5276C31.67 35.7076 30.84 34.7276 30.24 33.5876C29.64 32.4476 29.45 31.3776 29.67 30.3776C28.99 30.0976 28.45 29.7076 28.05 29.2076C27.67 28.7076 27.48 28.1876 27.48 27.6476V27.6176C27.5 27.0776 27.68 26.5976 28.02 26.1776C28.38 25.7776 28.87 25.4976 29.49 25.3376C30.47 25.0776 31.4 25.1276 32.28 25.4876C33.18 25.8276 33.84 26.3276 34.26 26.9876C34.36 27.1276 34.38 27.2876 34.32 27.4676C34.76 27.6476 35.1 27.8976 35.34 28.2176C35.58 28.5576 35.67 28.9076 35.61 29.2676C35.57 29.4676 35.48 29.6476 35.34 29.8076C35.22 29.9876 35.02 30.1576 34.74 30.3176C34.46 30.4976 34.03 30.6276 33.45 30.7076C32.87 30.7876 32.18 30.8076 31.38 30.7676C31.18 30.7476 30.98 30.7176 30.78 30.6776C30.62 31.4376 30.81 32.2776 31.35 33.1976C31.89 34.1376 32.59 34.9376 33.45 35.5976C33.57 35.6976 33.64 35.8276 33.66 35.9876ZM28.65 27.6476C28.65 27.9276 28.78 28.2176 29.04 28.5176C29.3 28.8376 29.65 29.0976 30.09 29.2976C30.81 27.9976 31.79 27.3176 33.03 27.2576C32.65 26.8576 32.14 26.5776 31.5 26.4176C30.86 26.2776 30.3 26.2876 29.82 26.4476C29.04 26.6676 28.65 27.0676 28.65 27.6476ZM31.44 29.5976C31.92 29.6376 32.33 29.6376 32.67 29.5976C33.03 29.5776 33.32 29.5476 33.54 29.5076C33.76 29.4676 33.94 29.4176 34.08 29.3576C34.22 29.2976 34.32 29.2376 34.38 29.1776C34.44 29.1376 34.47 29.1076 34.47 29.0876V29.0576C34.47 28.9776 34.4 28.8776 34.26 28.7576C34.14 28.6376 33.97 28.5476 33.75 28.4876C33.33 28.3676 32.9 28.3876 32.46 28.5476C32.02 28.7076 31.62 29.0576 31.26 29.5976C31.32 29.5976 31.38 29.5976 31.44 29.5976ZM33.75 46.797C33.79 46.957 33.77 47.107 33.69 47.247C33.61 47.387 33.49 47.477 33.33 47.517C33.19 47.557 33.05 47.537 32.91 47.457C31.71 46.777 30.76 46.187 30.06 45.687C29.36 45.187 28.81 44.677 28.41 44.157C28.01 43.637 27.84 43.127 27.9 42.627C28.02 41.627 29.1 40.837 31.14 40.257C32.52 39.837 33.21 39.477 33.21 39.177C33.23 39.117 33.2 39.027 33.12 38.907C33.06 38.807 32.88 38.637 32.58 38.397C32.3 38.157 31.91 37.887 31.41 37.587C30.91 37.307 30.17 36.927 29.19 36.447C28.21 35.987 27.05 35.487 25.71 34.947C25.47 34.847 25.35 34.667 25.35 34.407C25.35 34.367 25.36 34.327 25.38 34.287C25.46 33.947 25.67 33.797 26.01 33.837C27.65 34.037 30.7 34.787 35.16 36.087C35.62 36.227 35.97 36.327 36.21 36.387C36.37 36.447 36.48 36.547 36.54 36.687C36.62 36.827 36.64 36.967 36.6 37.107C36.56 37.267 36.47 37.387 36.33 37.467C36.19 37.547 36.04 37.557 35.88 37.497C35.74 37.457 35.39 37.357 34.83 37.197C33.29 36.757 32.09 36.417 31.23 36.177C32.43 36.817 33.26 37.377 33.72 37.857C34.18 38.337 34.4 38.797 34.38 39.237C34.36 39.757 34.09 40.167 33.57 40.467C33.05 40.787 32.34 41.087 31.44 41.367C29.9 41.807 29.1 42.277 29.04 42.777C29 43.017 29.13 43.307 29.43 43.647C29.75 44.007 30.2 44.387 30.78 44.787C31.38 45.187 31.85 45.487 32.19 45.687C32.53 45.907 32.96 46.157 33.48 46.437C33.62 46.517 33.71 46.637 33.75 46.797ZM43.41 49.8696C43.13 50.2496 42.74 50.4396 42.24 50.4396C41.72 50.4396 41.16 50.2196 40.56 49.7796C39.96 49.3596 39.44 48.8596 39 48.2796C38.92 48.1796 38.88 48.0596 38.88 47.9196C38.88 47.7396 38.96 47.5896 39.12 47.4696C39.24 47.3696 39.38 47.3296 39.54 47.3496C39.7 47.3696 39.83 47.4496 39.93 47.5896C40.17 47.8896 40.43 48.1696 40.71 48.4296C40.99 48.7096 41.27 48.9196 41.55 49.0596C41.83 49.2196 42.06 49.2996 42.24 49.2996C42.34 49.2996 42.42 49.2596 42.48 49.1796C42.58 49.0396 42.71 48.9596 42.87 48.9396C43.03 48.9196 43.17 48.9496 43.29 49.0296C43.43 49.1296 43.51 49.2596 43.53 49.4196C43.55 49.5796 43.51 49.7296 43.41 49.8696ZM44.7 76.2973C44.58 76.3973 44.44 76.4373 44.28 76.4173C44.12 76.3973 43.99 76.3173 43.89 76.1773C43.73 75.9373 43.74 75.7073 43.92 75.4873C44.26 74.5273 44.29 67.7873 44.01 55.2673C38.55 53.9673 32.63 52.6473 26.25 51.3073C18.55 49.7073 13.26 48.7373 10.38 48.3973C10.38 48.4373 10.37 48.4773 10.35 48.5173C10.31 48.6773 10.22 48.7873 10.08 48.8473C9.92 48.9073 9.77 48.9073 9.63 48.8473C9.31 48.7473 9.08 48.6673 8.94 48.6073C8.78 48.5273 8.63 48.4173 8.49 48.2773C8.33 48.1373 8.25 47.9873 8.25 47.8273C8.25 47.7673 8.26 47.6973 8.28 47.6173C8.36 47.3573 8.57 47.2073 8.91 47.1673C9.25 47.1073 9.71 47.1273 10.29 47.2273C11.13 47.3073 12.34 47.4873 13.92 47.7673C16.92 48.2673 20.82 49.0173 25.62 50.0173C32.1 51.3573 38.22 52.7073 43.98 54.0673C43.96 52.7073 43.92 51.0173 43.86 48.9973C43.78 45.7973 43.74 43.9173 43.74 43.3573C43.74 43.1973 43.79 43.0673 43.89 42.9673C44.01 42.8473 44.15 42.7873 44.31 42.7873C44.41 42.7873 44.5 42.8173 44.58 42.8773C44.68 42.9173 44.75 42.9873 44.79 43.0873C44.85 43.1673 44.88 43.2573 44.88 43.3573C44.88 43.9173 44.93 45.7873 45.03 48.9673C45.07 50.9473 45.11 52.7473 45.15 54.3673C47.79 55.0073 50.03 55.5773 51.87 56.0773C52.03 56.1173 52.15 56.2073 52.23 56.3473C52.31 56.4873 52.33 56.6273 52.29 56.7673C52.25 56.9273 52.16 57.0473 52.02 57.1273C51.88 57.2073 51.73 57.2273 51.57 57.1873C49.79 56.7073 47.66 56.1573 45.18 55.5373C45.34 61.5373 45.4 66.0673 45.36 69.1273C45.32 72.1873 45.25 74.1073 45.15 74.8873C45.07 75.6873 44.92 76.1573 44.7 76.2973ZM46.02 99.7709C45.9 99.8709 45.76 99.9109 45.6 99.8909C45.44 99.8709 45.31 99.8009 45.21 99.6809C45.01 99.4409 45.01 99.2009 45.21 98.9609C45.49 98.1409 45.56 92.9809 45.42 83.4809C39.92 82.1609 33.96 80.8309 27.54 79.4909C19.84 77.8909 14.55 76.9209 11.67 76.5809C11.67 76.6209 11.66 76.6609 11.64 76.7009C11.58 76.8609 11.48 76.9709 11.34 77.0309C11.2 77.0909 11.05 77.1009 10.89 77.0609C10.59 76.9409 10.37 76.8409 10.23 76.7609C10.07 76.7009 9.92 76.6009 9.78 76.4609C9.62 76.3209 9.54 76.1709 9.54 76.0109C9.54 75.9509 9.55 75.8809 9.57 75.8009C9.65 75.5409 9.86 75.3809 10.2 75.3209C10.54 75.2809 10.99 75.3109 11.55 75.4109C12.41 75.4909 13.62 75.6709 15.18 75.9509C18.2 76.4509 22.11 77.2009 26.91 78.2009C33.45 79.5409 39.62 80.9109 45.42 82.3109C45.4 81.9309 45.39 81.5509 45.39 81.1709C40.01 78.1709 32.67 74.2209 23.37 69.3209C21.99 69.7609 20.61 69.8409 19.23 69.5609C17.47 69.2209 16.03 68.4509 14.91 67.2509C14.45 66.7709 14.16 66.3109 14.04 65.8709C13.92 65.4309 13.97 65.0609 14.19 64.7609C14.77 64.0209 16.14 64.2109 18.3 65.3309L19.8 66.1409C21.42 66.9809 22.64 67.6209 23.46 68.0609C24 67.8409 24.53 67.5609 25.05 67.2209C26.49 66.2609 27.72 65.5309 28.74 65.0309C29.76 64.5309 30.69 64.3109 31.53 64.3709C32.31 64.4109 33.02 64.6209 33.66 65.0009C34.32 65.3809 34.85 65.9009 35.25 66.5609C35.59 67.1209 35.78 67.7109 35.82 68.3309C35.88 68.9509 35.79 69.5109 35.55 70.0109C35.49 70.1709 35.38 70.2709 35.22 70.3109C35.08 70.3709 34.93 70.3609 34.77 70.2809C34.63 70.2209 34.53 70.1109 34.47 69.9509C34.43 69.8109 34.45 69.6709 34.53 69.5309C34.87 68.8109 34.78 68.0209 34.26 67.1609C33.64 66.1209 32.71 65.5709 31.47 65.5109C30.79 65.4709 29.98 65.6809 29.04 66.1409C28.12 66.6209 27 67.3009 25.68 68.1809C25.38 68.3809 25.07 68.5609 24.75 68.7209C33.33 73.2609 40.2 76.9609 45.36 79.8209C45.32 77.1809 45.25 73.6709 45.15 69.2909C45.07 65.7309 45.03 63.6409 45.03 63.0209V62.9909C45.03 62.8509 45.08 62.7209 45.18 62.6009C45.3 62.4809 45.44 62.4209 45.6 62.4209C45.76 62.4209 45.89 62.4809 45.99 62.6009C46.11 62.7009 46.17 62.8309 46.17 62.9909C46.17 63.6309 46.21 65.7209 46.29 69.2609C46.39 73.4609 46.47 77.2009 46.53 80.4809C48.97 81.8409 51.22 83.1209 53.28 84.3209C53.58 84.4809 53.66 84.7109 53.52 85.0109C53.4 85.3309 53.18 85.4509 52.86 85.3709C51.1 84.8909 49.01 84.3609 46.59 83.7809C46.65 86.7809 46.67 89.2809 46.65 91.2809C46.63 93.3009 46.61 94.8509 46.59 95.9309C46.59 97.0309 46.54 97.8609 46.44 98.4209C46.36 98.9809 46.29 99.3209 46.23 99.4409C46.19 99.5809 46.12 99.6909 46.02 99.7709ZM16.83 67.3709C18.35 68.3709 20.01 68.7409 21.81 68.4809C21.47 68.3209 20.99 68.0709 20.37 67.7309C19.75 67.4109 19.38 67.2209 19.26 67.1609L17.76 66.3509C16.48 65.6709 15.6 65.3809 15.12 65.4809C15.14 65.6609 15.3 65.9309 15.6 66.2909C15.88 66.6509 16.29 67.0109 16.83 67.3709ZM46.56 81.8009C46.56 81.8409 46.56 81.9509 46.56 82.1309C46.56 82.3309 46.56 82.4809 46.56 82.5809C47.42 82.7809 48.23 82.9809 48.99 83.1809C48.25 82.7609 47.44 82.3009 46.56 81.8009ZM33.66 93.3509C33.68 93.5109 33.64 93.6509 33.54 93.7709C33.44 93.9109 33.31 93.9909 33.15 94.0109C32.99 94.0309 32.85 93.9909 32.73 93.8909C31.67 93.0709 30.84 92.0909 30.24 90.9509C29.64 89.8109 29.45 88.7409 29.67 87.7409C28.99 87.4609 28.45 87.0709 28.05 86.5709C27.67 86.0709 27.48 85.5509 27.48 85.0109V84.9809C27.5 84.4409 27.68 83.9609 28.02 83.5409C28.38 83.1409 28.87 82.8609 29.49 82.7009C30.47 82.4409 31.4 82.4909 32.28 82.8509C33.18 83.1909 33.84 83.6909 34.26 84.3509C34.36 84.4909 34.38 84.6509 34.32 84.8309C34.76 85.0109 35.1 85.2609 35.34 85.5809C35.58 85.9209 35.67 86.2709 35.61 86.6309C35.57 86.8309 35.48 87.0109 35.34 87.1709C35.22 87.3509 35.02 87.5209 34.74 87.6809C34.46 87.8609 34.03 87.9909 33.45 88.0709C32.87 88.1509 32.18 88.1709 31.38 88.1309C31.18 88.1109 30.98 88.0809 30.78 88.0409C30.62 88.8009 30.81 89.6409 31.35 90.5609C31.89 91.5009 32.59 92.3009 33.45 92.9609C33.57 93.0609 33.64 93.1909 33.66 93.3509ZM28.65 85.0109C28.65 85.2909 28.78 85.5809 29.04 85.8809C29.3 86.2009 29.65 86.4609 30.09 86.6609C30.81 85.3609 31.79 84.6809 33.03 84.6209C32.65 84.2209 32.14 83.9409 31.5 83.7809C30.86 83.6409 30.3 83.6509 29.82 83.8109C29.04 84.0309 28.65 84.4309 28.65 85.0109ZM31.44 86.9609C31.92 87.0009 32.33 87.0009 32.67 86.9609C33.03 86.9409 33.32 86.9109 33.54 86.8709C33.76 86.8309 33.94 86.7809 34.08 86.7209C34.22 86.6609 34.32 86.6009 34.38 86.5409C34.44 86.5009 34.47 86.4709 34.47 86.4509V86.4209C34.47 86.3409 34.4 86.2409 34.26 86.1209C34.14 86.0009 33.97 85.9109 33.75 85.8509C33.33 85.7309 32.9 85.7509 32.46 85.9109C32.02 86.0709 31.62 86.4209 31.26 86.9609C31.32 86.9609 31.38 86.9609 31.44 86.9609ZM38.13 98.9402C37.95 99.5402 37.47 99.9402 36.69 100.14C35.93 100.34 35.04 100.31 34.02 100.05C32.26 99.5702 30.63 98.3902 29.13 96.5102C28.49 95.7302 27.93 94.8702 27.45 93.9302C24.51 93.2102 20.86 92.4102 16.5 91.5302C12.12 90.6302 8.66 89.9702 6.12 89.5502C5.8 89.4902 5.64 89.3002 5.64 88.9802C5.64 88.9402 5.64 88.9102 5.64 88.8902C5.66 88.7902 5.7 88.7002 5.76 88.6202C5.82 88.5402 5.9 88.4802 6 88.4402C6.1 88.4002 6.2 88.3902 6.3 88.4102C9.8 88.9302 16.56 90.0802 26.58 91.8602C26.5 91.6202 26.43 91.3802 26.37 91.1402C26.31 90.9802 26.32 90.8302 26.4 90.6902C26.48 90.5502 26.6 90.4602 26.76 90.4202C26.92 90.3802 27.07 90.4002 27.21 90.4802C27.35 90.5602 27.44 90.6802 27.48 90.8402C27.58 91.2402 27.72 91.6502 27.9 92.0702C28.6 92.2102 29.64 92.4002 31.02 92.6402C36.86 93.6802 39.91 94.2102 40.17 94.2302C40.33 94.2302 40.46 94.2802 40.56 94.3802C40.68 94.5002 40.74 94.6302 40.74 94.7702C40.76 94.9302 40.71 95.0702 40.59 95.1902C40.49 95.3102 40.36 95.3802 40.2 95.4002C40.04 95.4002 37.32 94.9302 32.04 93.9902C32.88 94.2902 33.64 94.5902 34.32 94.8902C35 95.2102 35.56 95.5002 36 95.7602C36.44 96.0402 36.81 96.3202 37.11 96.6002C37.41 96.8802 37.63 97.1302 37.77 97.3502C37.93 97.5702 38.04 97.7802 38.1 97.9802C38.18 98.2002 38.21 98.3802 38.19 98.5202C38.19 98.6802 38.17 98.8202 38.13 98.9402ZM34.32 98.9402C35.1 99.1202 35.73 99.1602 36.21 99.0602C36.69 98.9802 36.96 98.8302 37.02 98.6102C37.04 98.5902 37.05 98.5602 37.05 98.5202C37.05 98.4002 37 98.2602 36.9 98.1002C36.82 97.9602 36.65 97.7702 36.39 97.5302C36.15 97.2902 35.83 97.0402 35.43 96.7802C35.05 96.5402 34.52 96.2602 33.84 95.9402C33.16 95.6402 32.38 95.3402 31.5 95.0402C30.9 94.8402 30.06 94.6002 28.98 94.3202C29.68 95.4602 30.49 96.4402 31.41 97.2602C32.33 98.1002 33.3 98.6602 34.32 98.9402ZM33.54 122.292C33.58 122.452 33.56 122.592 33.48 122.712C33.4 122.852 33.28 122.942 33.12 122.982C32.96 123.022 32.82 123.002 32.7 122.922C32.32 122.682 31.91 122.422 31.47 122.142C31.05 121.862 30.47 121.442 29.73 120.882C28.99 120.342 28.34 119.822 27.78 119.322C27.24 118.822 26.76 118.282 26.34 117.702C25.92 117.122 25.71 116.622 25.71 116.202C25.71 116.042 25.74 115.902 25.8 115.782C26.16 114.822 27.69 114.552 30.39 114.972C29.49 114.312 28.81 113.712 28.35 113.172C27.69 112.392 27.61 111.712 28.11 111.132C28.55 110.592 29.33 110.352 30.45 110.412C31.57 110.452 32.65 110.772 33.69 111.372C33.83 111.452 33.92 111.572 33.96 111.732C34 111.892 33.98 112.042 33.9 112.182C33.82 112.322 33.7 112.412 33.54 112.452C33.4 112.492 33.26 112.472 33.12 112.392C32.56 112.052 31.97 111.812 31.35 111.672C30.73 111.552 30.21 111.512 29.79 111.552C29.39 111.612 29.13 111.712 29.01 111.852C28.91 111.952 28.98 112.142 29.22 112.422C29.66 112.942 30.45 113.592 31.59 114.372C31.77 114.512 31.9 114.612 31.98 114.672C32.08 114.752 32.19 114.842 32.31 114.942C32.45 115.042 32.54 115.122 32.58 115.182C32.62 115.242 32.66 115.312 32.7 115.392C32.76 115.472 32.78 115.552 32.76 115.632C32.76 115.712 32.74 115.802 32.7 115.902C32.6 116.162 32.37 116.302 32.01 116.322C31.67 116.342 31.22 116.292 30.66 116.172C29.56 115.952 28.72 115.862 28.14 115.902C27.56 115.962 27.2 116.012 27.06 116.052C26.94 116.092 26.88 116.142 26.88 116.202C26.84 116.262 26.86 116.362 26.94 116.502C27 116.662 27.11 116.842 27.27 117.042C27.43 117.262 27.63 117.502 27.87 117.762C28.13 118.022 28.44 118.312 28.8 118.632C29.16 118.972 29.55 119.312 29.97 119.652C30.41 119.992 30.91 120.362 31.47 120.762C32.05 121.162 32.66 121.552 33.3 121.932C33.44 122.012 33.52 122.132 33.54 122.292ZM33.75 133.164C33.79 133.324 33.77 133.474 33.69 133.614C33.61 133.754 33.49 133.844 33.33 133.884C33.19 133.924 33.05 133.904 32.91 133.824C31.71 133.144 30.76 132.554 30.06 132.054C29.36 131.554 28.81 131.044 28.41 130.524C28.01 130.004 27.84 129.494 27.9 128.994C28.02 127.994 29.1 127.204 31.14 126.624C32.52 126.204 33.21 125.844 33.21 125.544C33.23 125.484 33.2 125.394 33.12 125.274C33.06 125.174 32.88 125.004 32.58 124.764C32.3 124.524 31.91 124.254 31.41 123.954C30.91 123.674 30.17 123.294 29.19 122.814C28.21 122.354 27.05 121.854 25.71 121.314C25.47 121.214 25.35 121.034 25.35 120.774C25.35 120.734 25.36 120.694 25.38 120.654C25.46 120.314 25.67 120.164 26.01 120.204C27.65 120.404 30.7 121.154 35.16 122.454C35.62 122.594 35.97 122.694 36.21 122.754C36.37 122.814 36.48 122.914 36.54 123.054C36.62 123.194 36.64 123.334 36.6 123.474C36.56 123.634 36.47 123.754 36.33 123.834C36.19 123.914 36.04 123.924 35.88 123.864C35.74 123.824 35.39 123.724 34.83 123.564C33.29 123.124 32.09 122.784 31.23 122.544C32.43 123.184 33.26 123.744 33.72 124.224C34.18 124.704 34.4 125.164 34.38 125.604C34.36 126.124 34.09 126.534 33.57 126.834C33.05 127.154 32.34 127.454 31.44 127.734C29.9 128.174 29.1 128.644 29.04 129.144C29 129.384 29.13 129.674 29.43 130.014C29.75 130.374 30.2 130.754 30.78 131.154C31.38 131.554 31.85 131.854 32.19 132.054C32.53 132.274 32.96 132.524 33.48 132.804C33.62 132.884 33.71 133.004 33.75 133.164ZM44.7 157.567C44.58 157.667 44.44 157.707 44.28 157.687C44.12 157.667 43.99 157.587 43.89 157.447C43.73 157.207 43.74 156.977 43.92 156.757C44.26 155.797 44.29 149.057 44.01 136.537C38.55 135.237 32.63 133.917 26.25 132.577C18.55 130.977 13.26 130.007 10.38 129.667C10.38 129.707 10.37 129.747 10.35 129.787C10.31 129.947 10.22 130.057 10.08 130.117C9.92 130.177 9.77 130.177 9.63 130.117C9.31 130.017 9.08 129.937 8.94 129.877C8.78 129.797 8.63 129.687 8.49 129.547C8.33 129.407 8.25 129.257 8.25 129.097C8.25 129.037 8.26 128.967 8.28 128.887C8.36 128.627 8.57 128.477 8.91 128.437C9.25 128.377 9.71 128.397 10.29 128.497C11.13 128.577 12.34 128.757 13.92 129.037C16.92 129.537 20.82 130.287 25.62 131.287C32.1 132.627 38.22 133.977 43.98 135.337C43.96 133.977 43.92 132.287 43.86 130.267C43.78 127.067 43.74 125.187 43.74 124.627C43.74 124.467 43.79 124.337 43.89 124.237C44.01 124.117 44.15 124.057 44.31 124.057C44.41 124.057 44.5 124.087 44.58 124.147C44.68 124.187 44.75 124.257 44.79 124.357C44.85 124.437 44.88 124.527 44.88 124.627C44.88 125.187 44.93 127.057 45.03 130.237C45.07 132.217 45.11 134.017 45.15 135.637C47.79 136.277 50.03 136.847 51.87 137.347C52.03 137.387 52.15 137.477 52.23 137.617C52.31 137.757 52.33 137.897 52.29 138.037C52.25 138.197 52.16 138.317 52.02 138.397C51.88 138.477 51.73 138.497 51.57 138.457C49.79 137.977 47.66 137.427 45.18 136.807C45.34 142.807 45.4 147.337 45.36 150.397C45.32 153.457 45.25 155.377 45.15 156.157C45.07 156.957 44.92 157.427 44.7 157.567ZM33.9 144.571C33.94 144.731 33.92 144.881 33.84 145.021C33.76 145.161 33.64 145.241 33.48 145.261C33.32 145.301 33.17 145.281 33.03 145.201C32.15 144.641 31.23 143.961 30.27 143.161C29.33 142.381 28.48 141.491 27.72 140.491C26.96 139.511 26.58 138.681 26.58 138.001C26.58 137.761 26.62 137.551 26.7 137.371C27.28 136.031 29.63 135.891 33.75 136.951C33.91 136.991 34.03 137.081 34.11 137.221C34.19 137.361 34.21 137.501 34.17 137.641C34.13 137.801 34.04 137.921 33.9 138.001C33.76 138.081 33.62 138.101 33.48 138.061C32.52 137.821 31.67 137.641 30.93 137.521C30.21 137.421 29.66 137.371 29.28 137.371C28.9 137.391 28.58 137.431 28.32 137.491C28.08 137.571 27.93 137.631 27.87 137.671C27.83 137.731 27.8 137.781 27.78 137.821C27.56 138.341 28.08 139.281 29.34 140.641C30.6 142.021 32.04 143.211 33.66 144.211C33.78 144.311 33.86 144.431 33.9 144.571ZM36.24 137.941C36.28 137.361 36.52 137.181 36.96 137.401C37.32 137.601 37.56 137.861 37.68 138.181C37.84 138.681 37.71 138.981 37.29 139.081C36.89 139.181 36.59 139.031 36.39 138.631C36.29 138.431 36.24 138.201 36.24 137.941ZM55.11 152.463C54.49 152.883 53.02 152.673 50.7 151.833C48.4 151.013 45.77 149.673 42.81 147.813C42.79 147.793 42.77 147.773 42.75 147.753C37.71 146.493 32.46 145.283 27 144.123C21.52 142.983 17.62 142.253 15.3 141.933C15.3 141.953 15.3 141.973 15.3 141.993C15.24 142.153 15.14 142.273 15 142.353C14.86 142.413 14.71 142.413 14.55 142.353C14.21 142.233 13.96 142.143 13.8 142.083C13.62 142.003 13.45 141.893 13.29 141.753C13.13 141.613 13.05 141.463 13.05 141.303C13.05 141.243 13.06 141.173 13.08 141.093C13.18 140.813 13.46 140.663 13.92 140.643C14.36 140.623 15.46 140.763 17.22 141.063C19.38 141.423 22.2 141.963 25.68 142.683C33.6 144.343 40.66 145.993 46.86 147.633C47.38 147.773 47.92 147.923 48.48 148.083C49.06 148.243 49.78 148.473 50.64 148.773C51.5 149.073 52.25 149.363 52.89 149.643C53.55 149.943 54.13 150.273 54.63 150.633C55.15 150.993 55.43 151.333 55.47 151.653C55.53 151.993 55.41 152.263 55.11 152.463ZM46.77 148.803C49.79 150.403 52.16 151.303 53.88 151.503C52.56 150.623 50.19 149.723 46.77 148.803ZM33.84 171.723C33.82 171.883 33.74 172.003 33.6 172.083C33.48 172.183 33.34 172.213 33.18 172.173C33.02 172.133 32.9 172.053 32.82 171.933C30.52 168.393 28.23 165.493 25.95 163.233C18.89 162.053 13.16 160.763 8.76 159.363C3.58 157.703 0.769999 156.093 0.329998 154.533C0.289999 154.393 0.269999 154.243 0.269999 154.083C0.269999 153.623 0.469999 153.223 0.869998 152.883C1.59 152.323 2.78 152.023 4.44 151.983C6.1 151.923 8.06 152.183 10.32 152.763C12.58 153.323 14.76 154.143 16.86 155.223C20.48 157.123 23.7 159.443 26.52 162.183C28.4 162.483 30.37 162.783 32.43 163.083C31.49 162.463 30.7 161.883 30.06 161.343C28.98 160.463 28.68 159.623 29.16 158.823C29.56 158.163 30.39 157.813 31.65 157.773C32.93 157.733 34.32 158.023 35.82 158.643C35.96 158.703 36.06 158.803 36.12 158.943C36.18 159.103 36.18 159.253 36.12 159.393C36.06 159.533 35.96 159.633 35.82 159.693C35.68 159.773 35.53 159.783 35.37 159.723C33.91 159.183 32.72 158.913 31.8 158.913C30.88 158.933 30.33 159.103 30.15 159.423C30.01 159.643 30.22 159.983 30.78 160.443C31.98 161.443 33.5 162.473 35.34 163.533C35.62 163.693 35.7 163.923 35.58 164.223C35.48 164.523 35.28 164.653 34.98 164.613C32.48 164.273 30.11 163.923 27.87 163.563C29.79 165.623 31.76 168.203 33.78 171.303C33.86 171.423 33.88 171.563 33.84 171.723ZM9.09 158.253C13.09 159.533 18.2 160.723 24.42 161.823C22.02 159.663 19.32 157.803 16.32 156.243C14.68 155.383 13.01 154.703 11.31 154.203C9.59 153.683 8.09 153.363 6.81 153.243C5.53 153.123 4.43 153.113 3.51 153.213C2.59 153.313 1.96 153.503 1.62 153.783C1.46 153.923 1.4 154.063 1.44 154.203C1.46 154.303 1.51 154.413 1.59 154.533C1.67 154.653 1.88 154.853 2.22 155.133C2.54 155.413 2.96 155.693 3.48 155.973C3.98 156.253 4.72 156.603 5.7 157.023C6.68 157.443 7.81 157.853 9.09 158.253ZM33.66 181.154C33.68 181.314 33.64 181.454 33.54 181.574C33.44 181.714 33.31 181.794 33.15 181.814C32.99 181.834 32.85 181.794 32.73 181.694C31.67 180.874 30.84 179.894 30.24 178.754C29.64 177.614 29.45 176.544 29.67 175.544C28.99 175.264 28.45 174.874 28.05 174.374C27.67 173.874 27.48 173.354 27.48 172.814V172.784C27.5 172.244 27.68 171.764 28.02 171.344C28.38 170.944 28.87 170.664 29.49 170.504C30.47 170.244 31.4 170.294 32.28 170.654C33.18 170.994 33.84 171.494 34.26 172.154C34.36 172.294 34.38 172.454 34.32 172.634C34.76 172.814 35.1 173.064 35.34 173.384C35.58 173.724 35.67 174.074 35.61 174.434C35.57 174.634 35.48 174.814 35.34 174.974C35.22 175.154 35.02 175.324 34.74 175.484C34.46 175.664 34.03 175.794 33.45 175.874C32.87 175.954 32.18 175.974 31.38 175.934C31.18 175.914 30.98 175.884 30.78 175.844C30.62 176.604 30.81 177.444 31.35 178.364C31.89 179.304 32.59 180.104 33.45 180.764C33.57 180.864 33.64 180.994 33.66 181.154ZM28.65 172.814C28.65 173.094 28.78 173.384 29.04 173.684C29.3 174.004 29.65 174.264 30.09 174.464C30.81 173.164 31.79 172.484 33.03 172.424C32.65 172.024 32.14 171.744 31.5 171.584C30.86 171.444 30.3 171.454 29.82 171.614C29.04 171.834 28.65 172.234 28.65 172.814ZM31.44 174.764C31.92 174.804 32.33 174.804 32.67 174.764C33.03 174.744 33.32 174.714 33.54 174.674C33.76 174.634 33.94 174.584 34.08 174.524C34.22 174.464 34.32 174.404 34.38 174.344C34.44 174.304 34.47 174.274 34.47 174.254V174.224C34.47 174.144 34.4 174.044 34.26 173.924C34.14 173.804 33.97 173.714 33.75 173.654C33.33 173.534 32.9 173.554 32.46 173.714C32.02 173.874 31.62 174.224 31.26 174.764C31.32 174.764 31.38 174.764 31.44 174.764ZM33.54 191.843C33.58 192.003 33.56 192.143 33.48 192.263C33.4 192.403 33.28 192.493 33.12 192.533C32.96 192.573 32.82 192.553 32.7 192.473C32.32 192.233 31.91 191.973 31.47 191.693C31.05 191.413 30.47 190.993 29.73 190.433C28.99 189.893 28.34 189.373 27.78 188.873C27.24 188.373 26.76 187.833 26.34 187.253C25.92 186.673 25.71 186.173 25.71 185.753C25.71 185.593 25.74 185.453 25.8 185.333C26.16 184.373 27.69 184.103 30.39 184.523C29.49 183.863 28.81 183.263 28.35 182.723C27.69 181.943 27.61 181.263 28.11 180.683C28.55 180.143 29.33 179.903 30.45 179.963C31.57 180.003 32.65 180.323 33.69 180.923C33.83 181.003 33.92 181.123 33.96 181.283C34 181.443 33.98 181.593 33.9 181.733C33.82 181.873 33.7 181.963 33.54 182.003C33.4 182.043 33.26 182.023 33.12 181.943C32.56 181.603 31.97 181.363 31.35 181.223C30.73 181.103 30.21 181.063 29.79 181.103C29.39 181.163 29.13 181.263 29.01 181.403C28.91 181.503 28.98 181.693 29.22 181.973C29.66 182.493 30.45 183.143 31.59 183.923C31.77 184.063 31.9 184.163 31.98 184.223C32.08 184.303 32.19 184.393 32.31 184.493C32.45 184.593 32.54 184.673 32.58 184.733C32.62 184.793 32.66 184.863 32.7 184.943C32.76 185.023 32.78 185.103 32.76 185.183C32.76 185.263 32.74 185.353 32.7 185.453C32.6 185.713 32.37 185.853 32.01 185.873C31.67 185.893 31.22 185.843 30.66 185.723C29.56 185.503 28.72 185.413 28.14 185.453C27.56 185.513 27.2 185.563 27.06 185.603C26.94 185.643 26.88 185.693 26.88 185.753C26.84 185.813 26.86 185.913 26.94 186.053C27 186.213 27.11 186.393 27.27 186.593C27.43 186.813 27.63 187.053 27.87 187.313C28.13 187.573 28.44 187.863 28.8 188.183C29.16 188.523 29.55 188.863 29.97 189.203C30.41 189.543 30.91 189.913 31.47 190.313C32.05 190.713 32.66 191.103 33.3 191.483C33.44 191.563 33.52 191.683 33.54 191.843ZM43.41 195.065C43.13 195.445 42.74 195.635 42.24 195.635C41.72 195.635 41.16 195.415 40.56 194.975C39.96 194.555 39.44 194.055 39 193.475C38.92 193.375 38.88 193.255 38.88 193.115C38.88 192.935 38.96 192.785 39.12 192.665C39.24 192.565 39.38 192.525 39.54 192.545C39.7 192.565 39.83 192.645 39.93 192.785C40.17 193.085 40.43 193.365 40.71 193.625C40.99 193.905 41.27 194.115 41.55 194.255C41.83 194.415 42.06 194.495 42.24 194.495C42.34 194.495 42.42 194.455 42.48 194.375C42.58 194.235 42.71 194.155 42.87 194.135C43.03 194.115 43.17 194.145 43.29 194.225C43.43 194.325 43.51 194.455 43.53 194.615C43.55 194.775 43.51 194.925 43.41 195.065ZM33.81 209.889C33.87 210.049 33.86 210.199 33.78 210.339C33.72 210.479 33.61 210.579 33.45 210.639C33.31 210.699 33.17 210.689 33.03 210.609C31.87 210.069 30.68 209.459 29.46 208.779C28.24 208.099 27.01 207.349 25.77 206.529C24.51 205.729 23.49 204.929 22.71 204.129C21.91 203.329 21.51 202.649 21.51 202.089C21.51 201.949 21.54 201.819 21.6 201.699C21.92 200.879 23.16 200.619 25.32 200.919C27.34 201.199 30.2 201.939 33.9 203.139C33.9 203.119 33.89 203.099 33.87 203.079C33.87 203.079 33.87 203.069 33.87 203.049C33.57 202.609 33.34 202.239 33.18 201.939C33.02 201.659 32.84 201.269 32.64 200.769C32.44 200.289 32.35 199.829 32.37 199.389C32.39 198.949 32.53 198.539 32.79 198.159C33.33 197.399 34.08 197.009 35.04 196.989C36 196.969 37.05 197.329 38.19 198.069C38.91 198.529 39.54 199.079 40.08 199.719C40.62 200.379 40.74 200.939 40.44 201.399C40.28 201.679 40.02 201.839 39.66 201.879C39.3 201.939 38.6 201.769 37.56 201.369C36.54 200.969 35.2 200.299 33.54 199.359C33.46 199.979 33.89 200.999 34.83 202.419C35.01 202.679 35.13 202.869 35.19 202.989C35.27 203.129 35.35 203.279 35.43 203.439C35.51 203.619 35.54 203.769 35.52 203.889C35.5 204.009 35.45 204.129 35.37 204.249C35.13 204.549 34.71 204.599 34.11 204.399C27.91 202.399 24.15 201.609 22.83 202.029C22.75 202.069 22.69 202.099 22.65 202.119C22.63 202.279 22.76 202.519 23.04 202.839C23.32 203.179 23.76 203.589 24.36 204.069C24.96 204.569 25.68 205.099 26.52 205.659C27.36 206.239 28.39 206.869 29.61 207.549C30.83 208.249 32.13 208.919 33.51 209.559C33.67 209.639 33.77 209.749 33.81 209.889ZM35.85 198.249C35.15 198.069 34.59 198.109 34.17 198.369C36.71 199.829 38.43 200.609 39.33 200.709C39.19 200.469 38.96 200.189 38.64 199.869C38.32 199.569 37.9 199.249 37.38 198.909C36.88 198.589 36.37 198.369 35.85 198.249ZM33.78 218.871C33.82 219.031 33.79 219.171 33.69 219.291C33.61 219.431 33.49 219.511 33.33 219.531C33.17 219.551 33.03 219.521 32.91 219.441C29.75 217.181 27.51 215.121 26.19 213.261C25.67 212.521 25.41 211.791 25.41 211.071C25.41 210.511 25.56 210.021 25.86 209.601C26.04 209.361 26.28 209.151 26.58 208.971C26.88 208.771 27.3 208.601 27.84 208.461C28.38 208.321 29.09 208.301 29.97 208.401C30.85 208.481 31.85 208.701 32.97 209.061H33C34.82 209.621 36.26 210.301 37.32 211.101C38.38 211.901 38.92 212.621 38.94 213.261C38.96 213.721 38.76 214.021 38.34 214.161C37.76 214.381 36.94 214.121 35.88 213.381C34.82 212.641 33.68 211.551 32.46 210.111C31.68 209.871 30.96 209.701 30.3 209.601C29.64 209.501 29.11 209.461 28.71 209.481C28.33 209.521 27.99 209.591 27.69 209.691C27.41 209.811 27.21 209.911 27.09 209.991C26.97 210.091 26.87 210.191 26.79 210.291C26.35 210.891 26.47 211.661 27.15 212.601C28.39 214.361 30.53 216.321 33.57 218.481C33.69 218.581 33.76 218.711 33.78 218.871ZM37.68 213.051C37.24 212.351 36.29 211.661 34.83 210.981C35.99 212.141 36.94 212.831 37.68 213.051ZM38.13 233.501C37.95 234.101 37.47 234.501 36.69 234.701C35.93 234.901 35.04 234.871 34.02 234.611C32.26 234.131 30.63 232.951 29.13 231.071C28.49 230.291 27.93 229.431 27.45 228.491C24.51 227.771 20.86 226.971 16.5 226.091C12.12 225.191 8.66 224.531 6.12 224.111C5.8 224.051 5.64 223.861 5.64 223.541C5.64 223.501 5.64 223.471 5.64 223.451C5.66 223.351 5.7 223.261 5.76 223.181C5.82 223.101 5.9 223.041 6 223.001C6.1 222.961 6.2 222.951 6.3 222.971C9.8 223.491 16.56 224.641 26.58 226.421C26.5 226.181 26.43 225.941 26.37 225.701C26.31 225.541 26.32 225.391 26.4 225.251C26.48 225.111 26.6 225.021 26.76 224.981C26.92 224.941 27.07 224.961 27.21 225.041C27.35 225.121 27.44 225.241 27.48 225.401C27.58 225.801 27.72 226.211 27.9 226.631C28.6 226.771 29.64 226.961 31.02 227.201C36.86 228.241 39.91 228.771 40.17 228.791C40.33 228.791 40.46 228.841 40.56 228.941C40.68 229.061 40.74 229.191 40.74 229.331C40.76 229.491 40.71 229.631 40.59 229.751C40.49 229.871 40.36 229.941 40.2 229.961C40.04 229.961 37.32 229.491 32.04 228.551C32.88 228.851 33.64 229.151 34.32 229.451C35 229.771 35.56 230.061 36 230.321C36.44 230.601 36.81 230.881 37.11 231.161C37.41 231.441 37.63 231.691 37.77 231.911C37.93 232.131 38.04 232.341 38.1 232.541C38.18 232.761 38.21 232.941 38.19 233.081C38.19 233.241 38.17 233.381 38.13 233.501ZM34.32 233.501C35.1 233.681 35.73 233.721 36.21 233.621C36.69 233.541 36.96 233.391 37.02 233.171C37.04 233.151 37.05 233.121 37.05 233.081C37.05 232.961 37 232.821 36.9 232.661C36.82 232.521 36.65 232.331 36.39 232.091C36.15 231.851 35.83 231.601 35.43 231.341C35.05 231.101 34.52 230.821 33.84 230.501C33.16 230.201 32.38 229.901 31.5 229.601C30.9 229.401 30.06 229.161 28.98 228.881C29.68 230.021 30.49 231.001 31.41 231.821C32.33 232.661 33.3 233.221 34.32 233.501ZM33.81 248.854C33.87 249.014 33.86 249.164 33.78 249.304C33.72 249.444 33.61 249.544 33.45 249.604C33.31 249.664 33.17 249.654 33.03 249.574C31.87 249.034 30.68 248.424 29.46 247.744C28.24 247.064 27.01 246.314 25.77 245.494C24.51 244.694 23.49 243.894 22.71 243.094C21.91 242.294 21.51 241.614 21.51 241.054C21.51 240.914 21.54 240.784 21.6 240.664C21.92 239.844 23.16 239.584 25.32 239.884C27.34 240.164 30.2 240.904 33.9 242.104C33.9 242.084 33.89 242.064 33.87 242.044C33.87 242.044 33.87 242.034 33.87 242.014C33.57 241.574 33.34 241.204 33.18 240.904C33.02 240.624 32.84 240.234 32.64 239.734C32.44 239.254 32.35 238.794 32.37 238.354C32.39 237.914 32.53 237.504 32.79 237.124C33.33 236.364 34.08 235.974 35.04 235.954C36 235.934 37.05 236.294 38.19 237.034C38.91 237.494 39.54 238.044 40.08 238.684C40.62 239.344 40.74 239.904 40.44 240.364C40.28 240.644 40.02 240.804 39.66 240.844C39.3 240.904 38.6 240.734 37.56 240.334C36.54 239.934 35.2 239.264 33.54 238.324C33.46 238.944 33.89 239.964 34.83 241.384C35.01 241.644 35.13 241.834 35.19 241.954C35.27 242.094 35.35 242.244 35.43 242.404C35.51 242.584 35.54 242.734 35.52 242.854C35.5 242.974 35.45 243.094 35.37 243.214C35.13 243.514 34.71 243.564 34.11 243.364C27.91 241.364 24.15 240.574 22.83 240.994C22.75 241.034 22.69 241.064 22.65 241.084C22.63 241.244 22.76 241.484 23.04 241.804C23.32 242.144 23.76 242.554 24.36 243.034C24.96 243.534 25.68 244.064 26.52 244.624C27.36 245.204 28.39 245.834 29.61 246.514C30.83 247.214 32.13 247.884 33.51 248.524C33.67 248.604 33.77 248.714 33.81 248.854ZM35.85 237.214C35.15 237.034 34.59 237.074 34.17 237.334C36.71 238.794 38.43 239.574 39.33 239.674C39.19 239.434 38.96 239.154 38.64 238.834C38.32 238.534 37.9 238.214 37.38 237.874C36.88 237.554 36.37 237.334 35.85 237.214ZM33.66 258.556C33.68 258.716 33.64 258.856 33.54 258.976C33.44 259.116 33.31 259.196 33.15 259.216C32.99 259.236 32.85 259.196 32.73 259.096C31.67 258.276 30.84 257.296 30.24 256.156C29.64 255.016 29.45 253.946 29.67 252.946C28.99 252.666 28.45 252.276 28.05 251.776C27.67 251.276 27.48 250.756 27.48 250.216V250.186C27.5 249.646 27.68 249.166 28.02 248.746C28.38 248.346 28.87 248.066 29.49 247.906C30.47 247.646 31.4 247.696 32.28 248.056C33.18 248.396 33.84 248.896 34.26 249.556C34.36 249.696 34.38 249.856 34.32 250.036C34.76 250.216 35.1 250.466 35.34 250.786C35.58 251.126 35.67 251.476 35.61 251.836C35.57 252.036 35.48 252.216 35.34 252.376C35.22 252.556 35.02 252.726 34.74 252.886C34.46 253.066 34.03 253.196 33.45 253.276C32.87 253.356 32.18 253.376 31.38 253.336C31.18 253.316 30.98 253.286 30.78 253.246C30.62 254.006 30.81 254.846 31.35 255.766C31.89 256.706 32.59 257.506 33.45 258.166C33.57 258.266 33.64 258.396 33.66 258.556ZM28.65 250.216C28.65 250.496 28.78 250.786 29.04 251.086C29.3 251.406 29.65 251.666 30.09 251.866C30.81 250.566 31.79 249.886 33.03 249.826C32.65 249.426 32.14 249.146 31.5 248.986C30.86 248.846 30.3 248.856 29.82 249.016C29.04 249.236 28.65 249.636 28.65 250.216ZM31.44 252.166C31.92 252.206 32.33 252.206 32.67 252.166C33.03 252.146 33.32 252.116 33.54 252.076C33.76 252.036 33.94 251.986 34.08 251.926C34.22 251.866 34.32 251.806 34.38 251.746C34.44 251.706 34.47 251.676 34.47 251.656V251.626C34.47 251.546 34.4 251.446 34.26 251.326C34.14 251.206 33.97 251.116 33.75 251.056C33.33 250.936 32.9 250.956 32.46 251.116C32.02 251.276 31.62 251.626 31.26 252.166C31.32 252.166 31.38 252.166 31.44 252.166ZM33.54 269.245C33.58 269.405 33.56 269.545 33.48 269.665C33.4 269.805 33.28 269.895 33.12 269.935C32.96 269.975 32.82 269.955 32.7 269.875C32.32 269.635 31.91 269.375 31.47 269.095C31.05 268.815 30.47 268.395 29.73 267.835C28.99 267.295 28.34 266.775 27.78 266.275C27.24 265.775 26.76 265.235 26.34 264.655C25.92 264.075 25.71 263.575 25.71 263.155C25.71 262.995 25.74 262.855 25.8 262.735C26.16 261.775 27.69 261.505 30.39 261.925C29.49 261.265 28.81 260.665 28.35 260.125C27.69 259.345 27.61 258.665 28.11 258.085C28.55 257.545 29.33 257.305 30.45 257.365C31.57 257.405 32.65 257.725 33.69 258.325C33.83 258.405 33.92 258.525 33.96 258.685C34 258.845 33.98 258.995 33.9 259.135C33.82 259.275 33.7 259.365 33.54 259.405C33.4 259.445 33.26 259.425 33.12 259.345C32.56 259.005 31.97 258.765 31.35 258.625C30.73 258.505 30.21 258.465 29.79 258.505C29.39 258.565 29.13 258.665 29.01 258.805C28.91 258.905 28.98 259.095 29.22 259.375C29.66 259.895 30.45 260.545 31.59 261.325C31.77 261.465 31.9 261.565 31.98 261.625C32.08 261.705 32.19 261.795 32.31 261.895C32.45 261.995 32.54 262.075 32.58 262.135C32.62 262.195 32.66 262.265 32.7 262.345C32.76 262.425 32.78 262.505 32.76 262.585C32.76 262.665 32.74 262.755 32.7 262.855C32.6 263.115 32.37 263.255 32.01 263.275C31.67 263.295 31.22 263.245 30.66 263.125C29.56 262.905 28.72 262.815 28.14 262.855C27.56 262.915 27.2 262.965 27.06 263.005C26.94 263.045 26.88 263.095 26.88 263.155C26.84 263.215 26.86 263.315 26.94 263.455C27 263.615 27.11 263.795 27.27 263.995C27.43 264.215 27.63 264.455 27.87 264.715C28.13 264.975 28.44 265.265 28.8 265.585C29.16 265.925 29.55 266.265 29.97 266.605C30.41 266.945 30.91 267.315 31.47 267.715C32.05 268.115 32.66 268.505 33.3 268.885C33.44 268.965 33.52 269.085 33.54 269.245ZM52.05 281.287C51.53 281.807 49.69 281.547 46.53 280.507C46.29 280.427 45.96 280.317 45.54 280.177C44.2 279.737 43.13 279.377 42.33 279.097C41.53 278.817 40.41 278.377 38.97 277.777C37.53 277.177 36.15 276.527 34.83 275.827C32.07 275.247 29.13 274.697 26.01 274.177C20.67 273.277 17.05 272.797 15.15 272.737C15.21 272.897 15.21 273.057 15.15 273.217C15.07 273.357 14.96 273.447 14.82 273.487C14.66 273.547 14.51 273.547 14.37 273.487C13.61 273.127 13.23 272.767 13.23 272.407C13.23 272.327 13.24 272.247 13.26 272.167C13.34 271.947 13.49 271.787 13.71 271.687C13.91 271.607 14.35 271.567 15.03 271.567C15.69 271.587 16.67 271.677 17.97 271.837C20.05 272.077 22.79 272.477 26.19 273.037C28.05 273.357 29.86 273.687 31.62 274.027C30.62 273.407 29.62 272.747 28.62 272.047C26.7 270.727 26.01 269.577 26.55 268.597C27.01 267.957 27.82 267.647 28.98 267.667C30.16 267.687 31.35 267.977 32.55 268.537C33.95 269.197 34.98 269.977 35.64 270.877C36.3 271.777 36.52 272.577 36.3 273.277C36.1 273.977 35.58 274.377 34.74 274.477C34.9 274.577 35.06 274.667 35.22 274.747C40.24 275.807 44.27 276.867 47.31 277.927C50.37 279.007 52.01 279.887 52.23 280.567C52.33 280.847 52.27 281.087 52.05 281.287ZM29.28 271.117C30.64 272.057 32 272.917 33.36 273.697C33.46 273.397 33.66 273.277 33.96 273.337C34.7 273.417 35.12 273.287 35.22 272.947C35.22 272.907 35.22 272.847 35.22 272.767C35.22 272.347 34.94 271.827 34.38 271.207C33.84 270.607 33.06 270.067 32.04 269.587C31.38 269.267 30.7 269.047 30 268.927C29.32 268.827 28.76 268.807 28.32 268.867C27.9 268.927 27.65 269.037 27.57 269.197C27.53 269.257 27.53 269.347 27.57 269.467C27.63 269.607 27.8 269.827 28.08 270.127C28.38 270.427 28.78 270.757 29.28 271.117ZM46.89 279.397C48.11 279.797 49.15 280.087 50.01 280.267C47.95 279.287 44.74 278.237 40.38 277.117C41.74 277.677 43.57 278.327 45.87 279.067C46.31 279.207 46.65 279.317 46.89 279.397Z" fill="black"/>
</g>
<path d="M55.3184 394.633V394.633ZM55.3184 394.633L54.9306 394.285L54.5526 393.936L54.1844 393.585L53.8262 393.232L53.4779 392.877L53.1397 392.52L52.8115 392.162L52.4936 391.802L52.1858 391.44L51.8883 391.076L51.6011 390.711L51.3243 390.344L51.0578 389.974L50.8019 389.603L50.5564 389.231L50.3214 388.856L50.097 388.479L49.8832 388.101L49.6801 387.72L49.4876 387.338L49.3058 386.954L49.1347 386.568L48.9744 386.18L48.8248 385.79L48.686 385.399L48.5579 385.005L48.4407 384.61L48.3343 384.212L48.2387 383.813L48.1539 383.412L48.08 383.009L48.0168 382.604L47.9645 382.197L47.9231 381.788L47.8924 381.377L47.8726 380.964L47.8635 380.55L47.8653 380.133L47.8778 379.715L47.901 379.295L47.935 378.873L47.9796 378.449L48.035 378.023L48.101 377.595L48.1776 377.165L48.2648 376.734L48.3626 376.3L48.4708 375.865L48.5896 375.428L48.7187 374.989L48.8583 374.548L49.0081 374.106L49.1683 373.661L49.3387 373.215L49.5193 372.767L49.7101 372.317L49.9108 371.866L50.1217 371.412L50.3424 370.957L50.573 370.501L50.8135 370.042L51.0637 369.582L51.3235 369.12L51.593 368.656L51.8719 368.191L52.1604 367.724L52.4582 367.255L52.7652 366.785L53.0815 366.313L53.4069 365.839L53.7413 365.364L54.0846 364.887L54.4368 364.409L54.7977 363.929L55.1673 363.448L55.5454 362.965L55.932 362.481L56.327 361.995L56.7301 361.508L57.1414 361.019L57.5608 360.529L57.9881 360.038L58.4232 359.545L58.866 359.05L59.3163 358.555L59.7742 358.058L60.2394 357.56L60.7118 357.06L61.1913 356.56L61.6779 356.058L62.1712 355.555L62.6714 355.05L63.1781 354.545L63.6913 354.038L64.2109 353.53L64.7367 353.021L65.2686 352.511L65.8064 352L66.3501 351.488L66.8994 350.975L67.4543 350.461L68.0146 349.946L68.5801 349.431L69.1508 348.914L69.7264 348.396L70.3069 347.878L70.8921 347.358L71.4818 346.838L72.0759 346.317L72.6742 345.796L73.2767 345.273L73.883 344.75L74.4932 344.226L75.1071 343.702L75.7244 343.177L76.345 342.651L76.9689 342.125L77.5958 341.599L78.2255 341.071L78.858 340.544L79.493 340.016L80.1305 339.487L80.7701 338.958L81.4119 338.429L82.0556 337.899L82.7011 337.369L83.3482 336.839L83.9967 336.308L84.6465 335.778L85.2975 335.247L85.9494 334.716L86.6021 334.184L87.2555 333.653L87.9093 333.121L88.5635 332.59L89.2178 332.058L89.8722 331.527L90.5264 330.995L91.1802 330.464L91.8336 329.933L92.4863 329.401L93.1382 328.87L93.7892 328.339L94.439 327.809L95.0875 327.278L95.7346 326.748L96.3801 326.218L97.0238 325.688L97.6655 325.159L98.3052 324.63L98.9426 324.101L99.5777 323.573L100.21 323.046L100.84 322.518L101.467 321.992L102.091 321.465L102.711 320.94L103.329 320.415L103.942 319.89L104.553 319.367L105.159 318.844L105.761 318.321L106.36 317.8L106.954 317.279L107.544 316.759L108.129 316.239L108.709 315.721L109.285 315.203L109.856 314.686L110.421 314.17L110.981 313.655L111.536 313.141L112.086 312.628L112.629 312.116L113.167 311.605L113.699 311.095L114.225 310.587L114.744 310.079L115.258 309.572L115.764 309.067L116.264 308.562L116.758 308.059L117.244 307.557L117.724 307.057L118.196 306.557L118.662 306.059L119.119 305.562L119.57 305.066L120.013 304.572L120.448 304.079L120.875 303.588L121.294 303.098L121.706 302.609L122.109 302.122L122.504 301.636L122.89 301.152L123.268 300.669L123.638 300.188L123.999 299.708L124.351 299.229L124.694 298.753L125.029 298.278L125.354 297.804L125.67 297.332L125.978 296.862L126.275 296.393L126.564 295.926L126.843 295.461L127.112 294.997L127.372 294.535L127.622 294.075L127.863 293.616L128.093 293.16L128.314 292.704L128.525 292.251L128.726 291.8L128.916 291.35L129.097 290.902L129.267 290.456L129.428 290.011L129.577 289.569L129.717 289.128L129.846 288.689L129.965 288.252L130.073 287.817L130.171 287.383L130.258 286.952L130.335 286.522L130.401 286.094L130.456 285.668L130.501 285.244L130.535 284.822L130.558 284.402L130.57 283.983L130.572 283.567L130.563 283.152L130.543 282.74L130.513 282.329L130.471 281.92L130.419 281.513L130.356 281.108L130.282 280.705L130.197 280.304L130.101 279.905L129.995 279.507L129.878 279.112L129.75 278.718L129.611 278.326L129.461 277.937L129.301 277.549L129.13 277.163L128.948 276.779L128.756 276.397L128.552 276.016L128.339 275.638L128.114 275.261L127.879 274.886L127.634 274.514L127.378 274.143L127.111 273.773L126.835 273.406L126.547 273.04L126.25 272.677L125.942 272.315L125.624 271.955L125.296 271.596L124.958 271.24L124.609 270.885L124.251 270.532L123.883 270.181L123.505 269.831" stroke="black"/>
<defs>
<filter id="filter0_b_214_12" x="-3.72998" y="-2.68018" width="65.1201" height="288.748" filterUnits="userSpaceOnUse" color-interpolation-filters="sRGB">
<feFlood flood-opacity="0" result="BackgroundImageFix"/>
<feGaussianBlur in="BackgroundImageFix" stdDeviation="2"/>
<feComposite in2="SourceAlpha" operator="in" result="effect1_backgroundBlur_214_12"/>
<feBlend mode="normal" in="SourceGraphic" in2="effect1_backgroundBlur_214_12" result="shape"/>
</filter>
</defs>
</svg>
