<svg width="128" height="128" viewBox="0 0 128 128" fill="none" xmlns="http://www.w3.org/2000/svg">
<path d="M71.0798 63.95L75.7698 54.56L86.2798 41.05L99.7998 31.1L113.31 24.9L120.59 24.72L122.42 27.53L119.32 41.75L114.39 62.73L111.3 67.79L103.98 71.88L96.5098 73L104.12 76.52L109.75 80.89L112.98 85.39V91.45L110.17 99.33L101.72 106.09L96.5098 108.06L88.3498 106.09L86.5198 103.98L82.6198 97.78L79.8998 88.49L74.4098 85.67L69.1098 88.58L71.0298 101.02L70.6098 104.96L69.9098 107.78L67.9398 111.72L62.8698 114.67L55.6898 114.82L46.3998 112.28L40.9098 108.06L37.5298 102.43L38.3698 94.97L47.9398 82.72L39.9198 85.67L29.6398 85.96L21.1998 76.8L8.23977 55.83L5.00977 46.54L7.67977 43.72H15.4198L32.0398 46.4L50.1998 53.58L63.2898 61.04L71.0798 63.95Z" fill="#41484A"/>
<path d="M67.0198 46.2599C67.0198 46.2599 68.2498 34.6299 69.5498 30.0699C71.3798 23.6599 76.5898 18.5999 80.9498 18.0999C85.3098 17.6099 84.7498 20.9899 82.0798 22.3899C79.5098 23.7399 76.7298 22.9499 76.7298 22.9499C76.7298 22.9499 73.1398 25.5699 71.9398 30.9699C70.5298 37.3099 69.4098 47.1599 69.4098 47.1599L67.0198 46.2599ZM63.1498 47.0299C63.1498 47.0299 58.3798 37.3399 53.2298 31.1899C48.0898 25.0699 41.5498 24.8499 40.6298 24.7799C39.7098 24.7099 35.8398 25.3399 35.8398 27.1699C35.8398 29.6299 39.2398 30.0699 41.1898 29.6999C43.4398 29.2799 44.4998 27.9399 44.4998 27.9399C44.4998 27.9399 48.6798 29.5999 51.4698 32.9399C54.7098 36.8099 60.6898 48.4999 60.6898 48.4999L61.1098 50.0499L63.1498 47.0299V47.0299Z" fill="#676F72"/>
<path d="M54.8401 93.7001C53.0901 92.8301 47.8001 97.7801 47.8001 100.18C47.8001 101.75 48.9301 104.4 51.3201 103.7C53.7201 102.99 57.1001 94.8201 54.8401 93.7001V93.7001ZM45.4101 93.7001C47.6601 95.6701 51.3801 91.7501 53.0101 89.2001C54.9801 86.1001 55.9701 78.3601 55.4001 78.6401C54.8401 78.9201 47.8001 83.9901 47.8001 83.9901C47.8001 83.9901 42.4601 91.1201 45.4101 93.7001V93.7001ZM56.1101 103.27C56.1101 105.73 58.7801 107.49 61.4601 107.07C62.8601 106.85 65.3701 105.55 65.1201 103.27C64.8401 100.74 63.7101 96.9301 61.0401 96.5101C58.3601 96.0901 56.1101 99.1901 56.1101 103.27V103.27ZM71.0101 83.9101C71.0101 83.9101 67.3201 91.6601 66.5201 93.5501C65.3901 96.2201 65.3501 102.89 68.3501 103.97C70.4901 104.74 71.0201 101.01 71.0201 101.01C71.0201 101.01 71.3901 93.3701 71.3901 90.8401C71.4001 88.3101 71.0101 83.9101 71.0101 83.9101V83.9101ZM73.8501 75.1201C73.8501 75.1201 80.8901 83.2901 83.0001 84.8301C85.1101 86.3801 88.7701 90.7401 93.5601 87.5001C98.3501 84.2601 85.3901 73.4201 84.2701 72.5801C83.1401 71.7401 73.0001 71.6001 73.0001 71.6001L73.8501 75.1201V75.1201ZM76.3801 83.0001C76.3801 83.0001 81.3001 87.4901 82.2901 88.4901C84.4001 90.6001 86.7901 92.5601 87.7801 95.5301C88.3401 97.2201 89.1901 99.7501 87.3601 100.74C85.8501 101.55 83.9601 99.3501 83.2801 98.6301C82.5901 97.9101 79.9501 92.1001 78.4101 88.7901C77.7701 87.4301 76.3801 83.0001 76.3801 83.0001V83.0001ZM90.7401 91.4501C89.6101 92.9701 91.0601 98.2101 92.5701 99.1901C95.3901 101.02 98.7601 97.7801 98.7601 96.2301C98.7701 94.6801 93.1301 88.2101 90.7401 91.4501ZM88.9101 72.0201C88.9101 72.0201 95.1001 81.7301 98.4801 83.7001C101.86 85.6701 104.52 85.4501 105.52 83.7001C107.77 79.7601 98.0601 74.4101 98.0601 74.4101L88.9101 72.0201V72.0201ZM96.6501 87.2201C95.8101 89.0501 99.3201 94.4001 101.72 94.4001C104.12 94.4001 104.98 91.0101 104.82 89.9001C104.54 87.9301 98.0901 84.1001 96.6501 87.2201V87.2201ZM61.6001 75.4001C61.6001 75.4001 55.1101 86.0601 57.1001 91.3101C58.6501 95.3901 62.8701 94.6901 66.5301 87.7901C70.1901 80.8901 70.8901 76.5301 70.8901 76.5301L69.7601 72.5901L61.6001 75.4001V75.4001Z" fill="#F5AD8C"/>
<path d="M63.9898 60.3301C63.9898 60.3301 58.2198 55.1201 46.5298 50.1901C34.8398 45.2601 24.4298 42.1701 15.1398 42.3101C5.84979 42.4501 4.43979 44.5601 4.01979 46.2501C3.59979 47.9401 5.25979 53.2701 7.11979 56.5301C9.36979 60.4701 17.8198 74.1301 20.7798 78.3501C23.3298 82.0001 25.0898 86.0501 30.6298 87.3601C36.7798 88.8101 44.2898 85.6701 44.2898 85.6701C44.2898 85.6701 37.1098 92.1501 36.6898 99.0401C36.2698 105.94 39.9298 110.87 47.5298 113.54C55.1298 116.21 66.2298 118.26 69.7698 109.88C70.7998 107.44 70.6098 104.95 70.6098 104.95C70.6098 104.95 68.0498 112.26 64.1298 112.97C61.0298 113.53 61.4598 111.7 58.6398 111.42C55.8198 111.14 56.2498 113.25 53.2898 113.25C51.0198 113.25 51.7398 111.42 49.3498 110.15C46.9598 108.88 45.5998 110.93 44.1398 109.73C41.7498 107.76 43.9998 106.77 43.0098 105.23C42.0198 103.68 39.7498 103.21 39.2098 101.29C38.2198 97.7701 40.1998 95.1001 42.3098 92.0001C44.4198 88.9001 48.2198 84.4001 51.1798 82.2901C54.1398 80.1801 68.7098 73.2301 68.7098 73.2301C68.7098 73.2301 69.4798 70.6101 68.3598 70.7501C67.2298 70.8901 53.9998 77.9301 51.5998 79.4801C49.2098 81.0301 38.8598 86.3901 31.3298 84.6901C26.9698 83.7001 19.0998 69.8201 15.9198 65.5001C12.7398 61.1801 7.23979 50.5801 7.67979 47.5201C8.08979 44.7001 12.8898 44.1401 20.2098 44.9901C27.5298 45.8301 34.0098 48.0901 43.1598 51.8901C52.3098 55.6901 62.7298 62.7301 63.9998 62.7301C65.2598 62.7301 63.9898 60.3301 63.9898 60.3301ZM72.5798 62.0201C72.5798 62.0201 71.4498 59.3001 73.4198 55.9201C75.3898 52.5401 81.7298 43.0201 88.1998 37.2401C94.6798 31.4701 116.5 19.5001 121.42 23.0201C126.35 26.5401 121 40.3801 119.87 45.1201C118.89 49.2501 117.62 62.5301 112.83 68.0701C109.11 72.3801 101.15 73.8401 101.15 73.8401C101.15 73.8401 114.09 80.0501 114.66 88.2001C115.36 98.2001 103.68 109.62 94.9498 109.32C88.2398 109.09 86.4998 103.97 86.4998 103.97C86.4998 103.97 92.6898 107.49 95.2298 106.79C97.7598 106.09 95.9298 103.69 98.3298 102.29C100.73 100.89 102.69 104.54 104.52 102.85C106.35 101.16 104.94 99.6101 106.21 97.9201C107.48 96.2301 109.31 97.9201 110.43 96.3701C111.56 94.8201 110.43 92.7101 110.99 91.3001C111.55 89.8901 112.68 89.6101 112.54 87.5001C112.4 85.3901 108.46 80.4601 103.53 78.0701C98.5998 75.6801 93.2498 74.5501 88.8898 73.7101C84.5298 72.8701 73.2598 72.1101 73.2598 72.1101C73.2598 72.1101 72.2698 69.8101 72.8398 69.9001C73.9698 70.0901 76.7798 70.3201 81.0098 70.4601C89.5498 70.7401 103.25 72.7101 109.31 67.9301C115.37 63.1501 116.35 49.6301 116.91 46.1101C117.47 42.5901 122.82 27.1001 119.73 25.5601C116.63 24.0101 101.39 30.1701 93.0298 36.6301C84.6698 43.0901 78.6298 52.0301 76.7998 55.6901C74.9698 59.3501 72.5798 62.0201 72.5798 62.0201V62.0201Z" fill="#676F72"/>
<path d="M72.4099 58.6799C73.1799 57.6199 74.3599 56.7899 73.8499 51.6099C73.2899 45.9099 68.3899 44.4699 64.5199 45.3099C61.3799 45.9899 56.9499 48.9399 59.3499 56.0399C61.4699 62.3499 68.6399 60.3999 68.6399 60.3999C68.6399 60.3999 71.6299 59.7299 72.4099 58.6799V58.6799Z" fill="#41484A"/>
<path d="M96.3178 40.0427C97.581 39.1995 98.0631 37.7041 97.3946 36.7027C96.7261 35.7014 95.1602 35.5732 93.897 36.4165C92.6339 37.2598 92.1518 38.7551 92.8202 39.7565C93.4887 40.7578 95.0546 40.886 96.3178 40.0427Z" fill="#FCFDFA"/>
<path d="M117.21 41.4701C116.58 40.4401 115.2 40.2101 114.04 41.1901C113.25 41.8501 112.6 43.4301 113.27 44.4301C113.94 45.4301 115.41 45.5501 116.37 44.7801C117.55 43.8301 117.78 42.4101 117.21 41.4701ZM104.33 35.1301C103.66 34.1301 101.86 34.0101 100.6 34.8501C99.3401 35.6901 98.3901 37.2601 99.4001 38.7901C100.1 39.8501 101.71 39.8301 103.27 38.9301C104.75 38.0901 105 36.1401 104.33 35.1301ZM121.22 26.0501C121.22 27.1401 120.52 28.2301 119.04 28.0201C117.69 27.8301 117.07 27.3201 117.07 25.8401C117.07 24.7501 118.11 24.0801 119.22 24.0801C120.33 24.0801 121.22 24.9601 121.22 26.0501V26.0501ZM119.53 34.6401C119.53 35.7301 118.45 36.6801 117.35 36.6101C116.29 36.5401 115.38 35.9101 115.38 34.4301C115.38 33.3401 116.45 32.5301 117.56 32.5301C118.67 32.5301 119.53 33.5501 119.53 34.6401Z" fill="#FCFDFA"/>
<path d="M113.79 55.83C114.978 55.83 115.94 54.8674 115.94 53.68C115.94 52.4926 114.978 51.53 113.79 51.53C112.603 51.53 111.64 52.4926 111.64 53.68C111.64 54.8674 112.603 55.83 113.79 55.83Z" fill="#FCFDFA"/>
<path d="M20.7401 74.1999C21.7729 74.1999 22.6101 73.3492 22.6101 72.2999C22.6101 71.2506 21.7729 70.3999 20.7401 70.3999C19.7073 70.3999 18.8701 71.2506 18.8701 72.2999C18.8701 73.3492 19.7073 74.1999 20.7401 74.1999Z" fill="#FCFDFA"/>
<path d="M10.0002 45.9701C10.8302 47.0801 10.1802 48.3201 9.14019 49.1701C8.11019 50.0201 6.69019 50.0001 5.98019 49.1301C5.27019 48.2601 5.53019 46.8601 6.57019 46.0101C7.61019 45.1601 9.19019 44.8701 10.0002 45.9701V45.9701ZM16.7402 60.8801C18.1602 61.1601 18.5502 62.4101 18.3602 63.6201C18.1702 64.8401 17.0802 65.6801 15.9202 65.5001C14.7602 65.3201 13.9702 64.1901 14.1502 62.9701C14.3302 61.7501 15.3402 60.6101 16.7402 60.8801ZM12.4602 53.7801C13.4902 54.8001 13.1202 56.0501 12.2902 56.9601C11.4602 57.8701 10.0902 57.9701 9.22019 57.1701C8.35019 56.3801 8.32019 55.0001 9.15019 54.0901C9.98019 53.1801 11.4502 52.7701 12.4602 53.7801ZM29.7702 49.6101C30.8102 50.4301 30.5102 51.7501 29.7502 52.8101C28.9902 53.8701 27.6702 54.2301 26.7902 53.6101C25.9102 52.9901 25.8202 51.6201 26.5802 50.5501C27.3402 49.4901 28.7402 48.8001 29.7702 49.6101ZM26.5502 48.9701C26.5102 50.3301 25.2402 50.8901 23.9102 50.9001C22.5802 50.9201 21.4902 50.0301 21.4802 48.9301C21.4702 47.8201 22.5302 46.9101 23.8602 46.9001C25.1902 46.8801 26.5902 47.6201 26.5502 48.9701ZM43.8602 99.1901C43.8602 100.42 43.0802 101.41 41.8502 101.41C40.6202 101.41 39.6302 100.41 39.6302 99.1701C39.6302 97.9401 40.6202 96.9301 41.8502 96.9301C43.0802 96.9301 43.8602 97.9501 43.8602 99.1901V99.1901ZM47.5902 107.07C46.7902 108.02 45.1502 107.88 44.3102 107.18C43.4802 106.48 43.4502 105.14 44.2502 104.19C45.0502 103.24 46.3702 103.03 47.2102 103.73C48.0402 104.43 48.3902 106.12 47.5902 107.07V107.07Z" fill="#FCFDFA"/>
<path d="M108.443 95.2363C109.396 94.5944 109.728 93.4205 109.184 92.6144C108.641 91.8083 107.429 91.6753 106.476 92.3172C105.523 92.9591 105.191 94.133 105.734 94.9391C106.278 95.7452 107.49 95.8782 108.443 95.2363Z" fill="#FCFDFA"/>
<path d="M110.895 88.8055C111.847 88.1636 112.119 86.9006 111.502 85.9846C110.885 85.0686 109.612 84.8464 108.66 85.4883C107.707 86.1303 107.435 87.3932 108.052 88.3092C108.669 89.2253 109.942 89.4475 110.895 88.8055Z" fill="#FCFDFA"/>
<path d="M95.2001 43.4899C91.7101 42.0399 88.0701 43.9599 83.9401 49.8699C79.8101 55.7799 77.5601 59.9099 79.3401 61.4099C81.1201 62.9099 89.3401 55.2499 91.0701 53.8999C93.6001 51.9299 99.0501 45.0799 95.2001 43.4899V43.4899ZM88.1601 59.9999C90.4801 58.6799 97.2601 59.2499 100.92 59.0599C103.36 58.9299 106.93 59.3099 107.02 60.5599C107.21 63.0899 106.27 64.6899 103.08 65.8199C99.8901 66.9499 92.3801 67.1299 87.5901 67.2299C84.7701 67.2899 82.1801 67.5699 81.8601 66.2899C81.6801 65.5399 84.0301 62.3499 88.1601 59.9999V59.9999ZM99.2401 48.9299C101.4 49.3099 108.34 49.1199 110.31 47.6199C111.51 46.6999 112.19 42.8299 110.31 41.9899C108.43 41.1499 103.08 41.3299 101.02 42.9299C99.7501 43.8999 97.4001 48.6099 99.2401 48.9299V48.9299ZM109.47 31.2899C109.11 33.4999 112.66 33.4499 114.26 32.9799C115.86 32.5099 118.01 29.9799 116.98 28.6599C115.94 27.3399 109.93 28.3799 109.47 31.2899V31.2899ZM106.93 36.7299C106.93 38.3299 108.24 38.8899 110.12 38.8899C112 38.8899 113.22 37.6999 113.22 36.4499C113.22 34.7599 111.62 34.0999 109.56 34.4799C107.99 34.7599 106.93 35.4199 106.93 36.7299V36.7299ZM94.3601 56.1599C94.3601 57.3599 97.7401 56.9999 102.62 56.9999C107.5 56.9999 108.63 56.2499 109.19 54.3699C109.75 52.4899 109.57 51.2699 106.66 51.1799C103.75 51.0899 98.0301 51.3699 96.3401 52.5899C95.5701 53.1399 94.3601 55.2199 94.3601 56.1599ZM29.1301 75.5799C28.9301 77.7299 30.8201 80.4599 36.4501 79.9899C42.0801 79.5199 48.7501 76.1999 50.5301 75.3899C53.8101 73.8899 56.8201 72.6699 56.8201 71.1699C56.8201 69.4799 53.0701 68.9199 48.0001 68.4499C42.9301 67.9799 39.1801 68.9199 34.9501 71.2699C31.4201 73.2299 29.2201 74.5499 29.1301 75.5799V75.5799ZM23.5901 68.1699C23.4201 69.4699 25.5601 72.5799 26.9701 72.6699C28.3801 72.7599 35.7901 68.8199 35.9801 67.5099C36.1701 66.1999 34.2901 64.1299 32.7901 63.7599C31.2901 63.3799 23.7801 66.7599 23.5901 68.1699ZM32.7901 53.8099C30.5301 56.0699 33.1701 60.2899 38.0501 62.7299C42.9301 65.1699 50.7201 65.8299 53.8201 66.2999C56.9201 66.7699 59.1701 66.8599 59.6401 65.9199C60.6501 63.9099 53.1601 60.1899 46.2201 56.9099C41.8901 54.8599 34.5701 52.0299 32.7901 53.8099V53.8099ZM10.7301 49.2099C11.0101 52.0299 18.5201 51.3099 18.6101 48.5499C18.7101 45.8299 10.4501 46.3999 10.7301 49.2099ZM15.6101 55.7799C16.7801 57.7299 21.6201 55.9699 20.0201 53.4299C18.5001 51.0199 13.9201 52.9699 15.6101 55.7799ZM20.8701 63.5699C21.6401 64.8799 24.2001 64.7899 26.6001 63.6599C28.2001 62.9099 30.3001 61.3699 29.8801 59.5299C29.4101 57.4699 25.5601 57.1799 23.0301 58.3999C21.2401 59.2699 19.2701 60.8499 20.8701 63.5699V63.5699Z" fill="#F5AD8C"/>
<path d="M74.06 71.24L67.79 73C67.79 73 69.73 81.4 70.46 84.54C71.23 87.85 76.16 111.71 80.03 111.08C84.02 110.43 77.36 85.74 76.72 83.06C76.12 80.49 74.06 71.24 74.06 71.24V71.24Z" fill="#676F72"/>
<path d="M73.43 82.51C75.28 82.11 76.3 81 76.3 81L77.53 86.3C77.53 86.3 76.6 87.16 74.77 87.58C72.75 88.05 71.18 87.69 71.18 87.69L69.97 82.43C69.96 82.42 71.45 82.93 73.43 82.51V82.51ZM67.79 73L74.05 71.24L74.98 75.46C74.98 75.46 73.33 76.29 71.99 76.57C70.65 76.85 68.68 76.87 68.68 76.87L67.79 73ZM72.3 92.5C72.3 92.5 74.08 92.71 75.7 92.36C77.32 92.01 78.67 90.97 78.67 90.97L79.71 95.63C79.71 95.63 78.17 96.72 76.76 96.98C75.31 97.25 73.48 97.09 73.5 97.09L72.3 92.5V92.5Z" fill="#41484A"/>
<path d="M67.23 56.67C65.04 57.28 63.4 58.64 63.29 61.03C63.15 64.13 63.85 65.96 64.7 68.91C65.24 70.8 65.87 75.13 71.6 73.7C75.54 72.71 75.12 69.05 74.98 66.38C74.84 63.69 74.28 60.19 73.29 58.64C72.37 57.2 69.77 55.97 67.23 56.67V56.67ZM72.54 47.42C73.41 48.71 73.44 50.49 72.3 51.25C71.17 52.01 69.3 51.47 68.43 50.18C67.56 48.89 67.78 47.23 68.91 46.46C70.05 45.7 71.67 46.13 72.54 47.42ZM63.3 51.58C62.88 53.08 61.44 54.16 60.13 53.79C58.81 53.42 58.12 51.76 58.53 50.26C58.95 48.76 60.35 47.84 61.67 48.21C62.99 48.58 63.71 50.08 63.3 51.58Z" fill="#303031"/>
</svg>
