<svg width="35" height="35" viewBox="0 0 35 35" fill="none" xmlns="http://www.w3.org/2000/svg">
<path fill-rule="evenodd" clip-rule="evenodd" d="M1.4585 4.13892C1.4585 3.42803 1.7409 2.74625 2.24357 2.24358C2.74625 1.7409 3.42802 1.4585 4.13891 1.4585H30.8585C31.2108 1.45792 31.5597 1.52684 31.8854 1.66131C32.211 1.79577 32.5069 1.99314 32.7562 2.24212C33.0054 2.49109 33.2031 2.78678 33.3379 3.11226C33.4727 3.43774 33.542 3.78662 33.5418 4.13892V30.8585C33.5422 31.2109 33.4731 31.5598 33.3385 31.8855C33.2039 32.2111 33.0064 32.507 32.7573 32.7562C32.5082 33.0055 32.2124 33.2031 31.8868 33.3379C31.5613 33.4727 31.2123 33.542 30.86 33.5418H4.13891C3.78679 33.5418 3.43812 33.4725 3.11283 33.3377C2.78753 33.2029 2.49198 33.0053 2.24306 32.7562C1.99414 32.5072 1.79673 32.2115 1.66211 31.8862C1.52749 31.5608 1.4583 31.2121 1.4585 30.86V4.13892ZM14.1577 13.691H18.502V15.8727C19.1291 14.6185 20.7333 13.4898 23.1439 13.4898C27.7654 13.4898 28.8606 15.9879 28.8606 20.5714V29.0618H24.1837V21.6156C24.1837 19.0052 23.5566 17.5323 21.9641 17.5323C19.7547 17.5323 18.836 19.1204 18.836 21.6156V29.0618H14.1577V13.691ZM6.13683 28.862H10.8152V13.4898H6.13683V28.8606V28.862ZM11.4845 8.476C11.4934 8.87656 11.4221 9.27486 11.2749 9.6475C11.1277 10.0201 10.9076 10.3596 10.6274 10.646C10.3472 10.9325 10.0126 11.16 9.64333 11.3154C9.27401 11.4707 8.87739 11.5508 8.47673 11.5508C8.07606 11.5508 7.67944 11.4707 7.31013 11.3154C6.94081 11.16 6.60625 10.9325 6.32608 10.646C6.0459 10.3596 5.82576 10.0201 5.67856 9.6475C5.53137 9.27486 5.46009 8.87656 5.46891 8.476C5.48623 7.68975 5.81072 6.94153 6.37291 6.39158C6.9351 5.84164 7.69028 5.53369 8.47673 5.53369C9.26317 5.53369 10.0184 5.84164 10.5805 6.39158C11.1427 6.94153 11.4672 7.68975 11.4845 8.476V8.476Z" fill="#44364B"/>
</svg>
