<svg width="64" height="64" viewBox="0 0 64 64" fill="none" xmlns="http://www.w3.org/2000/svg">
<g clip-path="url(#clip0_24_106)">
<path d="M4.95722 61.5701C3.13422 63.3921 1.47522 64.7021 0.396217 63.6341C-0.684783 62.5621 0.609217 60.9011 2.43522 59.0841L37.2092 20.0931C39.0282 18.2661 42.7702 19.0211 43.8482 20.0891C44.9272 21.1511 45.7102 24.8721 43.8902 26.6941L4.95722 61.5701Z" fill="#AEAEAE"/>
<path d="M3.49194 60.2702L38.2599 21.2892C39.8459 19.6952 42.8899 20.0652 44.3649 20.8952C44.2009 20.5722 44.0289 20.2882 43.8439 20.1032C42.7699 19.0402 39.0289 18.2862 37.2069 20.1122L2.43494 59.0982C0.608938 60.9202 -0.685062 62.5812 0.391938 63.6492C0.597938 63.8532 0.824938 63.9432 1.06594 63.9912C1.01494 62.9752 2.08694 61.6792 3.49194 60.2702Z" fill="#7C7B7D"/>
<path d="M62.45 32.5949C57.619 42.0559 44.69 44.4289 33.556 37.9229C22.434 31.4029 17.32 18.4679 22.144 9.01585C26.973 -0.427148 39.911 -2.81415 51.042 3.69685C62.168 10.2069 67.269 23.1559 62.45 32.5949Z" fill="#44364B"/>
<path d="M28.2902 19.0301C33.1222 9.58311 46.0561 7.19611 57.1881 13.7061C59.4467 15.0297 61.5107 16.6602 63.3211 18.5511C61.4831 12.7471 57.2112 7.23811 51.1092 3.66511C39.9772 -2.84489 27.0392 -0.457892 22.2112 8.98911C18.3952 16.4681 20.8131 26.1091 27.4871 33.0391C25.9761 28.2661 26.1162 23.2931 28.2902 19.0291" fill="#2C2431"/>
<path d="M42.1099 37.2199C42.1099 37.2199 54.3689 40.3329 60.9929 29.1799C60.9929 29.1799 62.7689 25.1699 60.4249 26.3709C60.4249 26.3709 56.3949 34.7879 42.1099 37.2179" fill="#F4F5F5"/>
</g>
<defs>
<clipPath id="clip0_24_106">
<rect width="64" height="64" fill="white"/>
</clipPath>
</defs>
</svg>
