<svg width="269" height="22" viewBox="0 0 269 22" fill="none" xmlns="http://www.w3.org/2000/svg">
<path d="M0 2C13.3547 2 13.3547 20 26.7094 20C40.0641 20 40.0641 2 53.4188 2C66.7735 2 66.7735 20 80.0969 20C93.452 20 93.452 2 106.775 2C120.13 2 120.13 20 133.453 20C146.808 20 146.808 2 160.162 2C173.517 2 173.517 20 186.872 20C200.226 20 200.226 2 213.581 2C226.936 2 226.936 20 240.291 20C253.645 20 253.645 2 267 2" stroke="#5F4855" stroke-width="3" stroke-miterlimit="10" stroke-linecap="round"/>
</svg>
