<svg width="35" height="35" viewBox="0 0 35 35" fill="none" xmlns="http://www.w3.org/2000/svg">
<g clip-path="url(#clip0_52_26)">
<path d="M34.2712 5.4915C34.0731 4.43173 33.687 3.47226 33.1542 2.7151C32.6062 1.93465 31.9347 1.37638 31.2029 1.09298C28.4642 0.0108406 17.4917 0.0108408 17.4917 0.0108408C12.9174 -0.0671768 8.34416 0.275964 3.79791 1.03833C3.06611 1.34267 2.39582 1.91341 1.84666 2.6998C1.30708 3.47806 0.916245 4.43778 0.712078 5.48932C0.221631 9.45005 -0.0166624 13.4717 0.000411778 17.5C-0.0170882 21.5247 0.22062 25.545 0.712078 29.5107C0.91187 30.5578 1.30125 31.5132 1.84229 32.2849C2.38333 33.0566 3.05708 33.614 3.79791 33.9092C6.57312 34.9891 17.4917 34.9891 17.4917 34.9891C22.0718 35.0673 26.6508 34.7241 31.2029 33.9616C31.9347 33.6782 32.6062 33.12 33.1542 32.3395C33.6868 31.5825 34.0724 30.6229 34.2698 29.5631C34.773 25.6039 35.0177 21.5806 35.0004 17.5503C35.0383 13.5029 34.7939 9.46058 34.2712 5.48932V5.4915ZM14.0033 24.9853V10.0168L23.1325 17.5022L14.0033 24.9853Z" fill="#44364B"/>
</g>
<defs>
<clipPath id="clip0_52_26">
<rect width="35" height="35" fill="white"/>
</clipPath>
</defs>
</svg>
