<svg width="111" height="166" viewBox="0 0 111 166" fill="none" xmlns="http://www.w3.org/2000/svg">
<path d="M68.08 41.04C68.08 41.3067 68.0267 41.5733 67.92 41.84C67.8133 42.0533 67.6533 42.24 67.44 42.4C67.2267 42.56 66.9867 42.6667 66.72 42.72C60.48 43.4133 54.6667 44.5867 49.28 46.24C43.3067 72.5333 38.64 93.7867 35.28 110C34.16 115.067 32.56 119.12 30.48 122.16C28.4 125.253 25.9467 127.147 23.12 127.84C22.3733 128.053 21.6 128.16 20.8 128.16C17.0667 128.16 13.6267 126.267 10.48 122.48C8.18667 119.707 6.45333 115.973 5.28 111.28C4.10667 106.64 3.73333 101.307 4.16 95.28C4.58667 89.3067 5.92 83.52 8.16 77.92C12.16 68.1067 18.5333 60 27.28 53.6C32.88 49.5467 39.36 46.2933 46.72 43.84C48.96 33.92 50.88 25.68 52.48 19.12C53.3333 15.6533 53.84 12.72 54 10.32C54.16 7.92 54.1067 6.34666 53.84 5.6C53.6267 4.8 53.36 4.34666 53.04 4.24C52.4 4.02666 51.4933 4.4 50.32 5.36C49.1467 6.26666 47.8933 7.68 46.56 9.6C45.2267 11.4667 44.16 13.4933 43.36 15.68C42.9867 16.6933 42.6933 17.7067 42.48 18.72C42.2667 19.68 42.16 20.7467 42.16 21.92C42.16 23.0933 42.4533 24.1867 43.04 25.2C43.68 26.16 44.5867 26.9067 45.76 27.44C46.1333 27.6 46.4 27.8933 46.56 28.32C46.72 28.6933 46.72 29.0667 46.56 29.44C46.4 29.8133 46.1067 30.08 45.68 30.24C45.3067 30.4 44.9067 30.4 44.48 30.24C41.8667 29.0667 40.1867 27.0933 39.44 24.32C38.7467 21.5467 39.0933 18.2933 40.48 14.56C41.8133 10.9333 43.84 7.65333 46.56 4.71999C49.28 1.73333 51.7333 0.586662 53.92 1.28C57.6533 2.4 58.16 8.58666 55.44 19.84C53.9467 26.0267 52.16 33.68 50.08 42.8C55.1467 41.36 60.5867 40.32 66.4 39.68C66.7733 39.6267 67.12 39.7333 67.44 40C67.8133 40.2667 68.0267 40.6133 68.08 41.04ZM32.24 109.36C35.4933 93.84 40.0533 73.1733 45.92 47.36C40.96 49.12 36.4533 51.2533 32.4 53.76C28.4 56.2667 25.04 58.9867 22.32 61.92C19.6 64.8 17.3333 67.6267 15.52 70.4C13.76 73.1733 12.2667 76.08 11.04 79.12C9.28 83.44 8.08 88.16 7.44 93.28C6.85333 98.4533 6.98667 103.547 7.84 108.56C8.74667 113.573 10.4 117.547 12.8 120.48C14.2933 122.293 15.8667 123.573 17.52 124.32C19.2267 125.067 20.8533 125.253 22.4 124.88C24.64 124.347 26.5867 122.747 28.24 120.08C29.9467 117.413 31.28 113.84 32.24 109.36Z" fill="black"/>
<path d="M42.92 124.96C42.92 124.693 42.9733 124.427 43.08 124.16C43.1867 123.947 43.3467 123.76 43.56 123.6C43.7733 123.44 44.0133 123.333 44.28 123.28C50.52 122.587 56.3333 121.413 61.72 119.76C67.6933 93.4667 72.36 72.2133 75.72 56C76.84 50.9333 78.44 46.88 80.52 43.84C82.6 40.7467 85.0533 38.8533 87.88 38.16C88.6267 37.9467 89.4 37.84 90.2 37.84C93.9333 37.84 97.3733 39.7333 100.52 43.52C102.813 46.2933 104.547 50.0267 105.72 54.72C106.893 59.36 107.267 64.6933 106.84 70.72C106.413 76.6933 105.08 82.48 102.84 88.08C98.84 97.8933 92.4667 106 83.72 112.4C78.12 116.453 71.64 119.707 64.28 122.16C62.04 132.08 60.12 140.32 58.52 146.88C57.6667 150.347 57.16 153.28 57 155.68C56.84 158.08 56.8933 159.653 57.16 160.4C57.3733 161.2 57.64 161.653 57.96 161.76C58.6 161.973 59.5067 161.6 60.68 160.64C61.8533 159.733 63.1067 158.32 64.44 156.4C65.7733 154.533 66.84 152.507 67.64 150.32C68.0133 149.307 68.3067 148.293 68.52 147.28C68.7333 146.32 68.84 145.253 68.84 144.08C68.84 142.907 68.5467 141.813 67.96 140.8C67.32 139.84 66.4133 139.093 65.24 138.56C64.8667 138.4 64.6 138.107 64.44 137.68C64.28 137.307 64.28 136.933 64.44 136.56C64.6 136.187 64.8933 135.92 65.32 135.76C65.6933 135.6 66.0933 135.6 66.52 135.76C69.1333 136.933 70.8133 138.907 71.56 141.68C72.2533 144.453 71.9067 147.707 70.52 151.44C69.1867 155.067 67.16 158.347 64.44 161.28C61.72 164.267 59.2667 165.413 57.08 164.72C53.3467 163.6 52.84 157.413 55.56 146.16C57.0533 139.973 58.84 132.32 60.92 123.2C55.8533 124.64 50.4133 125.68 44.6 126.32C44.2267 126.373 43.88 126.267 43.56 126C43.1867 125.733 42.9733 125.387 42.92 124.96ZM78.76 56.64C75.5067 72.16 70.9467 92.8267 65.08 118.64C70.04 116.88 74.5467 114.747 78.6 112.24C82.6 109.733 85.96 107.013 88.68 104.08C91.4 101.2 93.6667 98.3733 95.48 95.6C97.24 92.8267 98.7333 89.92 99.96 86.88C101.72 82.56 102.92 77.84 103.56 72.72C104.147 67.5467 104.013 62.4533 103.16 57.44C102.253 52.4267 100.6 48.4533 98.2 45.52C96.7067 43.7067 95.1333 42.4267 93.48 41.68C91.7733 40.9333 90.1467 40.7467 88.6 41.12C86.36 41.6533 84.4133 43.2533 82.76 45.92C81.0533 48.5867 79.72 52.16 78.76 56.64Z" fill="black"/>
</svg>
